<svg width="57" height="59" viewBox="0 0 57 59" fill="none" xmlns="http://www.w3.org/2000/svg">
<path d="M32.1947 3.69476C30.635 3.69476 29.366 2.4258 29.366 0.865986C29.366 0.387648 28.9782 0 28.5 0C28.0217 0 27.634 0.387648 27.634 0.865986C27.634 2.4258 26.3649 3.69476 24.8052 3.69476C24.327 3.69476 23.9392 4.08241 23.9392 4.56075C23.9392 5.03908 24.327 5.42673 24.8052 5.42673C26.3649 5.42673 27.634 6.69558 27.634 8.25551C27.634 8.73384 28.0217 9.12149 28.5 9.12149C28.9782 9.12149 29.366 8.73384 29.366 8.25551C29.366 6.69569 30.635 5.42673 32.1947 5.42673C32.6729 5.42673 33.0607 5.03908 33.0607 4.56075C33.0606 4.08229 32.6729 3.69476 32.1947 3.69476ZM28.5 5.58449C28.2151 5.19165 27.8691 4.84549 27.4762 4.56075C27.8692 4.27589 28.2152 3.92972 28.5 3.537C28.7848 3.92984 29.1309 4.276 29.5237 4.56075C29.131 4.84549 28.7848 5.19165 28.5 5.58449Z" fill="black"/>
<path d="M51.5919 16.6262C50.0322 16.6262 48.7631 15.3573 48.7631 13.7975C48.7631 13.3191 48.3754 12.9315 47.8971 12.9315C47.4189 12.9315 47.0312 13.3191 47.0312 13.7975C47.0312 15.3573 45.7621 16.6262 44.2024 16.6262C43.7242 16.6262 43.3364 17.0139 43.3364 17.4922C43.3364 17.9706 43.7242 18.3582 44.2024 18.3582C45.7621 18.3582 47.0312 19.6272 47.0312 21.187C47.0312 21.6653 47.4189 22.053 47.8971 22.053C48.3754 22.053 48.7631 21.6653 48.7631 21.187C48.7631 19.6272 50.0322 18.3582 51.5919 18.3582C52.0701 18.3582 52.4579 17.9706 52.4579 17.4922C52.4579 17.0138 52.0702 16.6262 51.5919 16.6262ZM47.8973 18.516C47.6124 18.1231 47.2664 17.777 46.8735 17.4922C47.2665 17.2074 47.6125 16.8612 47.8973 16.4685C48.1821 16.8613 48.5282 17.2075 48.921 17.4922C48.5282 17.777 48.1821 18.1231 47.8973 18.516Z" fill="black"/>
<path d="M12.7974 12.0077C11.2377 12.0077 9.96866 10.7389 9.96866 9.17897C9.96866 8.70064 9.5809 8.31299 9.10268 8.31299C8.62445 8.31299 8.23669 8.70064 8.23669 9.17897C8.23669 10.7388 6.96762 12.0077 5.40792 12.0077C4.9297 12.0077 4.54193 12.3954 4.54193 12.8737C4.54193 13.3521 4.9297 13.7397 5.40792 13.7397C6.96762 13.7397 8.23669 15.0087 8.23669 16.5685C8.23669 17.0468 8.62445 17.4345 9.10268 17.4345C9.5809 17.4345 9.96866 17.0468 9.96866 16.5685C9.96866 15.0087 11.2377 13.7397 12.7974 13.7397C13.2757 13.7397 13.6634 13.3521 13.6634 12.8737C13.6634 12.3954 13.2757 12.0077 12.7974 12.0077ZM9.10268 13.8976C8.81782 13.5048 8.47177 13.1586 8.07894 12.8739C8.47189 12.589 8.81793 12.2428 9.10268 11.8501C9.38754 12.2429 9.73359 12.5891 10.1264 12.8739C9.7337 13.1586 9.38754 13.5048 9.10268 13.8976Z" fill="black"/>
<path d="M1.71328 54.5355C1.23505 54.5355 0.84729 54.9231 0.84729 55.4015V58.134C0.84729 58.6123 1.23505 59 1.71328 59C2.1915 59 2.57926 58.6123 2.57926 58.134V55.4015C2.57926 54.9231 2.1915 54.5355 1.71328 54.5355Z" fill="black"/>
<path d="M14.7219 28.9942C14.6796 28.9549 14.6344 28.9209 14.587 28.8917V27.6526C14.587 24.6286 12.1267 22.1682 9.10268 22.1682C6.0787 22.1682 3.61833 24.6286 3.61833 27.6526V28.8913C3.57166 28.9204 3.52684 28.9539 3.48512 28.9927C1.80881 30.55 0.84729 32.7549 0.84729 35.0421V51.8608C0.84729 52.3391 1.23505 52.7268 1.71328 52.7268C2.1915 52.7268 2.57926 52.3391 2.57926 51.8608V35.0421C2.57926 33.7844 2.94813 32.5586 3.61845 31.5143V39.6604C3.61845 42.1752 5.66443 44.2211 8.17908 44.2211H10.0264C12.5412 44.2211 14.587 42.1751 14.587 39.6604V31.5143C15.2572 32.5587 15.6262 33.7844 15.6262 35.0421V58.134C15.6262 58.6123 16.014 59 16.4922 59C16.9704 59 17.3582 58.6123 17.3582 58.134V35.0421C17.3581 32.7558 16.3972 30.5515 14.7219 28.9942ZM12.8552 39.6604C12.8552 41.2203 11.5861 42.4892 10.0264 42.4892H8.17908C6.61938 42.4892 5.3503 41.2204 5.3503 39.6604V27.6527C5.3503 25.5835 7.03376 23.9002 9.1028 23.9002C11.1718 23.9002 12.8553 25.5835 12.8553 27.6527V39.6604H12.8552Z" fill="black"/>
<path d="M9.21815 24.9394H9.10268C8.62446 24.9394 8.23669 25.327 8.23669 25.8054C8.23669 26.2837 8.62446 26.6714 9.10268 26.6714H9.21815C9.69637 26.6714 10.0841 26.2837 10.0841 25.8054C10.0841 25.327 9.69637 24.9394 9.21815 24.9394Z" fill="black"/>
<path d="M11.0656 27.7104H10.9501C10.4719 27.7104 10.0841 28.0981 10.0841 28.5764C10.0841 29.0547 10.4719 29.4424 10.9501 29.4424H11.0656C11.5438 29.4424 11.9316 29.0547 11.9316 28.5764C11.9315 28.098 11.5438 27.7104 11.0656 27.7104Z" fill="black"/>
<path d="M7.37082 27.7104H7.25536C6.77714 27.7104 6.38937 28.0981 6.38937 28.5764C6.38937 29.0547 6.77714 29.4424 7.25536 29.4424H7.37082C7.84905 29.4424 8.23681 29.0547 8.23681 28.5764C8.23681 28.098 7.84905 27.7104 7.37082 27.7104Z" fill="black"/>
<path d="M11.0656 31.4051H10.9501C10.4719 31.4051 10.0841 31.7927 10.0841 32.271C10.0841 32.7494 10.4719 33.137 10.9501 33.137H11.0656C11.5438 33.137 11.9316 32.7494 11.9316 32.271C11.9315 31.7927 11.5438 31.4051 11.0656 31.4051Z" fill="black"/>
<path d="M7.37082 31.4051H7.25536C6.77714 31.4051 6.38937 31.7927 6.38937 32.271C6.38937 32.7494 6.77714 33.137 7.25536 33.137H7.37082C7.84905 33.137 8.23681 32.7494 8.23681 32.271C8.23681 31.7927 7.84905 31.4051 7.37082 31.4051Z" fill="black"/>
<path d="M11.0656 35.0998H10.9501C10.4719 35.0998 10.0841 35.4875 10.0841 35.9658C10.0841 36.4441 10.4719 36.8318 10.9501 36.8318H11.0656C11.5438 36.8318 11.9316 36.4441 11.9316 35.9658C11.9315 35.4874 11.5438 35.0998 11.0656 35.0998Z" fill="black"/>
<path d="M7.37082 35.0998H7.25536C6.77714 35.0998 6.38937 35.4875 6.38937 35.9658C6.38937 36.4441 6.77714 36.8318 7.25536 36.8318H7.37082C7.84905 36.8318 8.23681 36.4441 8.23681 35.9658C8.23681 35.4874 7.84905 35.0998 7.37082 35.0998Z" fill="black"/>
<path d="M11.0656 38.7946H10.9501C10.4719 38.7946 10.0841 39.1822 10.0841 39.6605C10.0841 40.1389 10.4719 40.5265 10.9501 40.5265H11.0656C11.5438 40.5265 11.9316 40.1389 11.9316 39.6605C11.9315 39.1821 11.5438 38.7946 11.0656 38.7946Z" fill="black"/>
<path d="M7.37082 38.7946H7.25536C6.77714 38.7946 6.38937 39.1822 6.38937 39.6605C6.38937 40.1389 6.77714 40.5265 7.25536 40.5265H7.37082C7.84905 40.5265 8.23681 40.1389 8.23681 39.6605C8.23681 39.1821 7.84905 38.7946 7.37082 38.7946Z" fill="black"/>
<path d="M35.8894 38.7946C35.4111 38.7946 35.0234 39.1822 35.0234 39.6605V58.1341C35.0234 58.6124 35.4111 59.0001 35.8894 59.0001C36.3676 59.0001 36.7554 58.6124 36.7554 58.1341V39.6604C36.7554 39.1821 36.3676 38.7946 35.8894 38.7946Z" fill="black"/>
<path d="M34.1851 18.8957C34.1238 18.8374 34.0559 18.7903 33.9843 18.7536V18.4158C33.9843 15.3919 31.524 12.9315 28.5 12.9315C25.476 12.9315 23.0156 15.3919 23.0156 18.4158V18.731C22.9683 18.7602 22.923 18.7943 22.8809 18.8337C21.2055 20.3908 20.2446 22.5953 20.2446 24.8815V58.134C20.2446 58.6123 20.6323 59 21.1106 59C21.5888 59 21.9766 58.6123 21.9766 58.134V24.8816C21.9766 23.624 22.3454 22.3982 23.0157 21.3539V30.4237C23.0157 32.9385 25.0617 34.9843 27.5764 34.9843H29.4237C31.9385 34.9843 33.9843 32.9384 33.9843 30.4237V21.3461C34.6602 22.3885 35.0235 23.603 35.0235 24.8816V36.0813C35.0235 36.5596 35.4113 36.9473 35.8895 36.9473C36.3677 36.9473 36.7555 36.5596 36.7555 36.0813V24.8816C36.7554 22.5961 35.8425 20.4702 34.1851 18.8957ZM28.2473 14.6729L24.757 18.1631C24.882 16.2951 26.3793 14.7979 28.2473 14.6729ZM24.7475 20.6033C24.7867 20.5754 24.8243 20.545 24.8595 20.5099L30.2642 15.1052C30.9199 15.4559 31.4597 15.9957 31.8105 16.6514L24.7475 23.7145V20.6033V20.6033ZM32.2525 30.4237C32.2525 31.9835 30.9834 33.2525 29.4237 33.2525H28.7433L32.2525 29.7434V30.4237ZM32.2525 27.3074C32.2203 27.3315 32.189 27.3574 32.1597 27.3866L26.5052 33.0412C25.8056 32.7539 25.2461 32.1943 24.9587 31.4948L32.2525 24.2012V27.3074ZM32.2525 21.7654C32.2203 21.7896 24.7476 29.2567 24.7476 29.2567V26.1454C24.7868 26.1175 24.8245 26.0871 24.8596 26.052L32.2525 18.6591V21.7654Z" fill="black"/>
<path d="M53.5821 31.8269C53.5208 31.7687 53.4532 31.7218 53.3816 31.6851V31.3473C53.3816 28.3233 50.9212 25.863 47.8973 25.863C44.8733 25.863 42.4129 28.3233 42.4129 31.3473V31.6937C42.3333 31.7322 42.2579 31.7833 42.1905 31.8478C40.5469 33.4205 39.6419 35.5391 39.6419 37.8131V58.134C39.6419 58.6124 40.0296 59 40.5079 59C40.9861 59 41.3738 58.6124 41.3738 58.134V37.8131C41.3738 36.5354 41.7372 35.3208 42.413 34.2782V43.3552C42.413 45.87 44.459 47.9158 46.9737 47.9158H48.821C51.3357 47.9158 53.3816 45.8699 53.3816 43.3552V34.2777C54.0575 35.3201 54.4208 36.5345 54.4208 37.8131V58.134C54.4208 58.6124 54.8086 59 55.2868 59C55.765 59 56.1528 58.6124 56.1528 58.134V37.8131C56.1527 35.5276 55.2397 33.4016 53.5821 31.8269ZM51.5475 30.4804C49.8178 30.4598 48.3332 29.2384 47.9413 27.5961C49.6924 27.6164 51.1583 28.8418 51.5475 30.4804ZM48.8209 46.184H46.9735C45.5052 46.184 44.2952 45.0595 44.158 43.6265C45.8448 44.6226 47.7528 45.1449 49.7446 45.1449C50.1895 45.1449 50.633 45.1179 51.0727 45.0651C50.5555 45.7442 49.7387 46.184 48.8209 46.184ZM51.6496 43.2166C51.026 43.3463 50.3871 43.4128 49.7446 43.4128C47.7049 43.4128 45.7695 42.7649 44.1471 41.539C44.1463 41.5384 44.1455 41.538 44.1448 41.5374V38.6157C45.7393 39.8417 47.7105 40.5262 49.7446 40.5262C50.3884 40.5262 51.0261 40.4581 51.6496 40.3265V43.2166ZM51.6496 38.5479C51.031 38.7111 50.3919 38.7945 49.7446 38.7945C47.6677 38.7945 45.6696 37.9173 44.2625 36.3879C44.226 36.3482 44.1864 36.3134 44.1448 36.2821V31.9341C45.3621 34.3038 47.828 35.9078 50.6683 35.9078C50.9973 35.9078 51.3253 35.8851 51.6498 35.8417V38.5479H51.6496ZM51.6496 34.0893C51.3271 34.1463 50.9985 34.1761 50.6682 34.1761C47.6797 34.1761 45.2335 31.8517 45.0771 28.8758C45.4038 28.5037 45.8023 28.1961 46.2514 27.976C46.8224 30.4074 49.0293 32.2134 51.5918 32.2134C51.611 32.2134 51.6303 32.2126 51.6495 32.2124V34.0893H51.6496Z" fill="black"/>
</svg>
