<svg width="68" height="51" viewBox="0 0 68 51" fill="none" xmlns="http://www.w3.org/2000/svg">
<path d="M0 30.1098C0.774172 28.3592 2.18795 27.1809 3.6262 26.0362C4.5996 25.263 5.62367 24.5515 6.66697 23.7818C6.2161 22.4979 5.77921 21.1911 5.30212 19.9072C4.73416 18.3697 4.77785 16.8005 4.76387 15.1802C4.73416 12.0295 6.40484 9.89843 8.38832 7.85546C8.51797 7.73925 8.6247 7.59943 8.70289 7.44334C9.88249 4.59198 12.1194 3.03686 15.0291 2.61946C16.8675 2.35176 18.5801 1.7054 20.3662 1.28272C21.731 0.960832 23.1527 0.97412 24.5114 1.32147C26.5089 1.82164 27.8318 3.10202 28.4836 5.06046C28.7475 5.84242 28.4836 6.4289 27.8615 6.61911C27.2393 6.80931 26.771 6.50991 26.5054 5.73851C25.9689 4.17106 24.8574 3.39966 23.2426 3.23059C21.878 3.08724 20.4995 3.28943 19.232 3.81882C20.1757 4.80685 21.2557 5.30702 22.4405 5.67687C23.9766 6.15415 25.4848 6.72125 27.0017 7.26194C27.2042 7.34228 27.3995 7.44009 27.5854 7.55429C29.9341 8.88223 30.6611 10.1362 30.4199 13.2253C30.3727 13.8188 30.4199 14.282 30.7292 14.8104C31.7044 16.4606 31.3391 18.1073 30.4986 19.6977C30.3465 19.9865 30.149 20.2471 29.8485 20.691C30.3622 20.7685 30.7852 20.8988 31.1993 20.8776C31.8494 20.8424 32.4908 20.6874 33.1409 20.6152C33.8714 20.5325 34.3642 20.8847 34.4288 21.5064C34.4935 22.1281 34.1265 22.5966 33.41 22.711C32.5712 22.8431 31.7341 23.0034 30.8883 23.0756C30.5043 23.0983 30.1205 23.027 29.7698 22.8678C29.1145 22.5754 28.4923 22.2056 27.865 21.8533C26.9178 21.325 26.8252 20.5765 27.6378 19.8632C28.3801 19.2376 28.8932 18.3795 29.0953 17.4257C29.3294 16.3303 29.0725 15.6522 28.1219 15.0781C26.7535 14.2503 25.2279 13.8611 23.6778 13.6163C20.9446 13.183 18.1904 12.8889 15.473 12.3835C14.185 12.1439 12.9442 11.598 11.7087 11.1101C10.9782 10.8195 10.7703 10.2102 11.0464 9.62721C11.3225 9.04426 11.9202 8.87694 12.6192 9.23622C14.6376 10.2929 16.8605 10.4902 19.0537 10.8319C21.4182 11.2017 23.7809 11.5839 26.1349 12.0171C26.8741 12.1527 27.5784 12.475 28.3001 12.7216C28.5727 11.3127 28.2197 10.4321 27.0349 9.69413C25.4236 8.68145 23.6219 8.15134 21.8061 7.68638C20.0287 7.26379 18.4464 6.2454 17.3184 4.79804C17.1996 4.64658 16.9689 4.47222 16.8081 4.48455C14.4716 4.67652 12.2644 5.25771 11.0411 7.50322C10.4854 8.5476 9.76716 9.40354 9.01745 10.2824C8.35047 11.0632 7.77412 11.9182 7.29959 12.8308C7.02347 13.3592 6.95008 14.0531 6.95008 14.6712C6.95008 15.6452 7.58095 16.2193 8.45648 16.5275C9.88075 17.0277 11.3592 17.0277 12.8464 16.9643C15.6757 16.8551 18.505 16.6843 21.3343 16.6579C23.1071 16.6336 24.8647 16.9909 26.4896 17.7058C27.2079 18.0245 27.4665 18.5687 27.2149 19.1658C27.1685 19.2903 27.0979 19.4043 27.0072 19.5009C26.9165 19.5975 26.8075 19.6748 26.6866 19.7283C26.5658 19.7818 26.4355 19.8104 26.3036 19.8124C26.1716 19.8144 26.0406 19.7898 25.9182 19.7399C22.9141 18.4666 19.7737 18.6991 16.6368 18.8188C14.4402 18.9034 12.2417 19.0231 10.0468 18.9949C9.06813 18.9809 8.09473 18.6304 7.06542 18.4226C7.10911 18.5987 7.15804 18.8576 7.24017 19.1059C7.92697 21.0978 8.61376 23.0897 9.31628 25.0745C9.64657 26.0045 9.59415 26.9308 9.37046 27.866C9.30755 28.1232 9.23415 28.3768 9.18172 28.6339C8.9126 30.0006 8.9126 29.983 10.1359 30.5994C10.4749 30.7755 10.8576 31.0133 11.0359 31.3303C11.6685 32.4521 12.2242 33.6198 12.7992 34.7716C12.8615 34.9355 12.9134 35.1031 12.9547 35.2736C13.1941 35.9675 13.5192 36.0925 14.0487 35.5976C15.7753 33.9861 17.4739 32.343 19.1796 30.7051C19.4155 30.4779 19.592 30.1855 19.8419 29.9777C20.7401 29.2257 20.7052 28.2799 20.4361 27.2743C20.3551 27.0247 20.2966 26.7683 20.2613 26.5082C20.2274 26.264 20.2861 26.016 20.4258 25.8136C20.5654 25.6112 20.7756 25.4693 21.0145 25.4162C21.523 25.2648 21.9949 25.4479 22.1714 25.9129C22.7516 27.4381 23.1815 29.0178 22.0648 30.4919C21.2434 31.568 20.298 32.5473 19.426 33.5863C19.211 33.8233 19.0463 34.102 18.9419 34.4053C18.6203 35.5131 18.3425 36.635 18.0139 37.8872C20.7104 36.7142 23.1465 35.4074 25.179 33.3486C24.632 33.3979 24.0832 33.4384 23.5345 33.4965C22.7236 33.5793 22.1889 33.2482 22.112 32.6001C22.0333 31.9203 22.4213 31.4905 23.2584 31.3972C24.4275 31.2669 25.5984 31.1418 26.771 31.0626C27.1782 31.0362 27.4228 30.8865 27.5714 30.5342C27.7461 30.1291 27.9104 29.7258 28.0764 29.3208C28.3316 28.692 28.8628 28.4032 29.4168 28.5969C29.5539 28.6396 29.6806 28.711 29.7884 28.8064C29.8963 28.9019 29.9829 29.0192 30.0426 29.1507C30.1024 29.2822 30.1339 29.425 30.135 29.5696C30.1362 29.7143 30.107 29.8575 30.0494 29.99C29.7363 30.8318 29.3418 31.6406 28.8716 32.4046C27.2586 34.8984 24.9902 36.686 22.4178 38.0527C20.6895 38.9703 18.8615 39.6941 17.0755 40.499C16.6299 40.7015 16.1807 40.7262 15.791 40.3739C15.3751 39.9988 15.3996 39.5356 15.5429 39.0372C15.7526 38.301 15.9291 37.5561 16.1737 36.6033L15.3629 37.2725C13.7062 38.6357 11.693 38.0157 10.9695 35.9974C10.5745 34.8896 10.0118 33.8435 9.49454 32.7833C9.37904 32.6045 9.20443 32.4729 9.00172 32.4116C6.85046 31.6878 6.7928 30.8389 7.00949 28.8153C7.09862 27.9893 7.32755 27.1792 7.48134 26.3602C7.48445 26.2416 7.47152 26.1231 7.44289 26.008C7.34328 26.0291 7.24367 26.0221 7.18775 26.0679C5.72678 27.2496 4.23436 28.3944 2.81883 29.6395C1.88737 30.4638 1.88737 30.8477 2.60038 31.915C3.82368 33.7501 5.5328 35.0851 7.34852 36.4025C7.56697 35.9129 7.75396 35.4779 7.95143 35.0481C8.26774 34.3577 8.77104 34.1059 9.34949 34.3437C9.92793 34.5814 10.1237 35.1503 9.86327 35.89C8.9056 38.6216 7.91473 41.3496 7.03396 44.0989C6.72988 45.0464 6.64425 46.0819 6.57784 47.0929C6.51144 48.1038 6.8994 48.5177 7.86405 48.729C9.45609 49.0812 11.0359 48.84 12.5982 48.5353C17.4599 47.5842 22.0263 45.7385 26.5508 43.7801C28.412 42.9752 30.2521 42.121 32.0749 41.2352C33.4886 40.5483 34.8884 40.4655 36.4438 40.7174C39.516 41.2123 42.6144 41.6244 45.7164 41.8199C52.2715 42.2302 58.8319 42.0876 65.3835 41.6173C65.5355 41.6068 65.6893 41.5962 65.8414 41.5997C66.4984 41.6156 66.9546 42.04 66.9633 42.6388C66.9633 43.2095 66.5631 43.655 65.9322 43.7061C64.7579 43.8012 63.5852 43.8928 62.4091 43.9474C56.6789 44.208 50.9433 44.3666 45.2218 43.9227C41.9276 43.6674 38.6544 43.1249 35.376 42.6776C34.6619 42.5831 33.936 42.7013 33.2877 43.0175C30.689 44.1992 28.1044 45.4215 25.476 46.5399C21.5999 48.1813 17.6609 49.6519 13.5279 50.5113C11.6668 50.8988 9.79162 51.1806 7.88503 50.8636C5.41746 50.462 4.3462 49.0812 4.51222 46.5645C4.68698 43.9439 5.47688 41.4782 6.35765 39.0372C6.53241 38.567 6.43979 38.3521 6.05183 38.0281C4.54368 36.7706 3.00057 35.5342 1.66019 34.1112C0.91223 33.3169 0.541746 32.1633 0 31.17V30.1098Z" fill="black"/>
<path d="M49.8057 20.0508L55.7037 20.197C55.9431 20.197 56.1843 20.197 56.422 20.2146C56.6856 20.2337 56.9328 20.3511 57.1153 20.5438C57.2978 20.7366 57.4027 20.9909 57.4093 21.2572C57.412 21.3967 57.3866 21.5353 57.3348 21.6647C57.2831 21.7941 57.2059 21.9116 57.1081 22.0103C57.0102 22.1089 56.8935 22.1867 56.7651 22.2388C56.6367 22.291 56.4992 22.3165 56.3608 22.3139C55.2057 22.3139 54.0505 22.2628 52.8954 22.2523C51.4973 22.2399 50.1115 22.2523 48.6872 22.2523C48.6451 22.3124 48.616 22.3808 48.6016 22.453C48.53 23.8849 47.7278 24.8905 46.73 25.7993C45.9383 26.5214 45.1764 27.2787 44.3882 28.006C42.9203 29.3622 41.3457 29.0328 40.4772 27.1519C40.3024 27.2699 40.1276 27.3967 39.9529 27.4935C38.4919 28.2667 37.0362 29.0504 35.5578 29.7831C35.1962 29.9354 34.8101 30.0202 34.4183 30.0332C33.258 30.1336 32.3597 29.371 32.4453 28.2086C32.5123 27.3809 32.7259 26.5721 33.0762 25.8204C34.5844 22.5763 37.1376 20.3379 40.2552 18.7898C41.4779 18.1911 42.5238 17.2803 43.289 16.148C46.5517 11.4967 49.8791 6.89298 53.1837 2.27516C53.2997 2.08927 53.4357 1.91681 53.5892 1.76089C53.9963 1.39104 54.4629 1.33821 54.9016 1.67107C55.1073 1.80347 55.2561 2.00907 55.3182 2.24696C55.3804 2.48486 55.3514 2.73762 55.2371 2.95497C55.1488 3.13539 55.0428 3.30648 54.9208 3.46572C51.1833 8.68704 47.4395 13.9066 43.6892 19.1244C43.41 19.481 43.0465 19.7614 42.6319 19.9398C40.1102 21.0776 37.8174 22.5411 36.1187 24.776C35.4424 25.6566 34.9846 26.7257 34.4271 27.7084L34.5844 27.8493C34.7386 27.8147 34.8908 27.7718 35.0405 27.7207C37.0013 26.9179 38.8284 25.8167 40.4579 24.4555C41.2968 23.751 42.1286 23.0466 42.9622 22.3421C43.7206 21.6975 44.2781 21.6006 44.7465 22.0374C45.2148 22.4742 45.1904 23.0307 44.5822 23.8461C43.892 24.7313 43.2553 25.6576 42.6756 26.62C42.7888 26.563 42.8959 26.4945 42.9954 26.4157C43.8377 25.6179 44.6556 24.7936 45.5171 24.017C45.822 23.765 46.0714 23.4518 46.2495 23.0973C46.4276 22.7428 46.5305 22.3549 46.5517 21.9581C46.6234 20.514 47.3049 19.4678 48.322 18.4516C53.8967 12.8757 59.4051 7.23113 64.9361 1.60943C65.0427 1.50023 65.1458 1.384 65.2629 1.28537C65.4633 1.09432 65.7302 0.990523 66.006 0.996457C66.2817 1.00239 66.544 1.11758 66.7361 1.31707C66.9078 1.51785 67.0023 1.7741 67.0023 2.03916C67.0023 2.30422 66.9078 2.56047 66.7361 2.76124C66.3429 3.20506 65.9165 3.61542 65.5023 4.03634L50.2985 19.5013C50.1552 19.6528 50.0119 19.8148 49.8057 20.0508Z" fill="black"/>
<path d="M50.0067 33.6277C48.9878 33.5591 47.9463 33.5943 46.9554 33.3882C46.26 33.2328 45.6163 32.8985 45.0872 32.4178C43.829 31.2554 43.7975 29.9803 44.9614 28.7193C46.6898 26.8577 48.7484 25.4101 50.9538 24.1931C52.5109 23.3319 54.213 23.5643 55.8802 23.8162C56.0572 23.8524 56.2404 23.8419 56.4122 23.7857C56.584 23.7295 56.7384 23.6296 56.8606 23.4957C59.454 21.0476 62.0538 18.6054 64.66 16.1691C64.7876 16.0494 64.9151 15.9296 65.0445 15.8169C65.6788 15.2498 66.2573 15.2128 66.7064 15.7095C67.1555 16.2061 67.0559 16.8049 66.4548 17.3738C63.5538 20.1054 60.6423 22.8334 57.7554 25.5686C57.2608 26.0388 56.7278 26.0687 56.1266 25.9912C55.3699 25.8961 54.608 25.72 53.8548 25.7605C53.1016 25.801 52.2191 25.8715 51.6109 26.2678C49.9542 27.3456 48.4076 28.5943 46.8348 29.813C46.5971 29.9891 46.3105 30.5175 46.3874 30.6302C46.5971 30.9384 46.9886 31.2783 47.3329 31.31C48.4808 31.4244 49.6355 31.4544 50.7878 31.3998C52.9863 31.2783 55.1795 30.9014 56.9602 29.533C59.489 27.5957 62.3392 26.2132 65.0113 24.5277C65.1214 24.459 65.2332 24.3886 65.3503 24.3287C65.9532 24.0187 66.5282 24.1526 66.8305 24.6809C67.1328 25.2093 66.9878 25.794 66.4058 26.1498C65.2315 26.8648 64.0256 27.527 62.8583 28.2526C61.3047 29.2195 59.7476 30.1899 58.2412 31.2237C55.7474 32.9391 52.974 33.5696 50.0067 33.6277Z" fill="black"/>
</svg>
