<svg width="66" height="70" viewBox="0 0 66 70" fill="none" xmlns="http://www.w3.org/2000/svg">
<path d="M10.2733 40.595C10.2418 40.595 10.2099 40.5936 10.1779 40.5906C9.61395 40.5386 9.19914 40.0393 9.2511 39.4754C9.74287 34.1498 17.1004 31.5128 18.5352 31.1898C25.2439 28.7379 27.7831 26.8699 25.874 18.3733C25.7499 17.8207 26.0971 17.2722 26.6496 17.148C27.2029 17.0236 27.7509 17.3714 27.8749 17.9236C28.9525 22.7194 28.706 25.9099 27.0758 28.2684C25.544 30.4848 22.9146 31.7762 19.1688 33.1419C19.1142 33.1619 19.0579 33.177 19.0008 33.1874C17.7244 33.419 11.6457 35.8451 11.2931 39.6639C11.2442 40.1957 10.7971 40.595 10.2733 40.595V40.595Z" fill="black"/>
<path d="M27.3827 60.7778C25.9449 60.7778 24.5074 60.5163 23.3872 59.9932C22.8739 59.7535 22.6523 59.1433 22.8918 58.6302C23.1315 58.117 23.7415 57.8951 24.2548 58.1349C25.9502 58.9266 28.8149 58.9266 30.5102 58.1349C31.0235 57.8956 31.6337 58.117 31.8733 58.6301C32.1129 59.1433 31.8912 59.7535 31.3781 59.9932C30.2579 60.5163 28.8201 60.7778 27.3827 60.7778V60.7778Z" fill="black"/>
<path d="M18.8885 45.4597C17.7282 45.4597 16.5677 45.3364 15.6636 45.0895C15.1174 44.9403 14.7953 44.3765 14.9444 43.8302C15.0936 43.2838 15.6577 42.962 16.2037 43.111C17.6591 43.5083 20.1179 43.5083 21.5731 43.111C22.1189 42.9619 22.6833 43.2837 22.8324 43.8302C22.9816 44.3765 22.6595 44.9403 22.1133 45.0895C21.2092 45.3364 20.0488 45.4597 18.8885 45.4597V45.4597Z" fill="black"/>
<path d="M36.0101 45.7315C34.8492 45.7315 33.6879 45.6082 32.7824 45.3616C32.236 45.2128 31.9137 44.6491 32.0625 44.1028C32.2112 43.5562 32.7752 43.2346 33.3213 43.3828C34.7799 43.7801 37.241 43.78 38.6954 43.383C39.2411 43.2338 39.8056 43.5556 39.9547 44.1021C40.1039 44.6484 39.7818 45.2123 39.2356 45.3614C38.3319 45.6081 37.1711 45.7315 36.0101 45.7315V45.7315Z" fill="black"/>
<path d="M65.1533 0.121987C64.6545 -0.145708 64.0327 0.0418698 63.765 0.540892L55.2752 16.3693L50.661 13.8949C50 13.5421 49.2529 13.5079 48.5933 13.7345C43.2787 7.86517 35.7874 4.51516 27.9065 4.51516C20.5954 4.51516 13.6696 7.34878 8.4049 12.4939C7.99994 12.8898 7.99242 13.539 8.38822 13.9439C8.78388 14.3489 9.43316 14.3564 9.83825 13.9606C14.7175 9.19202 21.1343 6.5658 27.9064 6.5658C35.2036 6.5658 42.1421 9.66862 47.0675 15.1048L45.972 17.1494C45.4996 18.0347 45.5945 19.0721 46.1259 19.8454L41.2198 25.893C41.0293 26.1268 40.4502 26.8384 40.6245 27.7118C40.6974 28.0768 40.9312 28.5911 41.6331 28.9687L53.7583 35.4689V41.2753C53.7583 47.223 53.4584 51.9419 51.994 55.6394C50.4271 59.5961 47.5814 62.0959 43.0384 63.506C41.9429 63.8463 41.4564 63.7506 41.3414 63.6405C41.1993 63.5042 41.0367 63.0057 41.4909 61.209C42.8501 59.5848 43.9771 57.8929 44.752 56.2763C44.9969 55.7657 44.7814 55.1532 44.2706 54.9085C43.7603 54.6636 43.1476 54.8789 42.9028 55.3898C42.1552 56.9494 41.0988 58.514 39.8605 59.9836C39.7993 60.0396 39.7446 60.1033 39.6981 60.1739C35.99 64.4956 30.7402 67.9491 27.2343 67.9491C27.1364 67.9491 27.0399 67.9463 26.9449 67.941C26.9059 67.9385 26.8669 67.9385 26.828 67.941C24.285 68.0859 20.3887 66.1842 16.9525 63.2736C16.5608 63.01 15.0844 61.7314 14.5142 60.9439C13.0852 58.5547 13.1325 56.1823 13.3834 52.651C13.927 44.9612 19.8793 41.76 25.6357 38.6641C28.7251 37.0026 31.6916 35.4064 33.861 33.1937C36.6001 37.8769 41.3944 39.9068 45.5286 39.92L45.5287 40.9011C45.5298 43.6191 45.5301 44.4392 45.5025 44.9377C45.5014 44.9567 45.5008 44.9755 45.5008 44.9945C45.5008 46.7144 45.2124 48.6809 44.6663 50.6817C44.5171 51.228 44.8392 51.7918 45.3856 51.9408C45.4759 51.9656 45.5667 51.9773 45.6561 51.9773C46.107 51.9773 46.5202 51.6777 46.6446 51.2217C47.2348 49.0583 47.5483 46.9156 47.5515 45.0228C47.5807 44.4692 47.5804 43.6859 47.5794 40.9006L47.5789 38.8524C47.5789 38.5649 47.4582 38.2906 47.2462 38.0963C47.0341 37.9022 46.7504 37.8062 46.464 37.831C42.5953 38.1702 37.7136 36.3287 35.2684 31.4942C35.5528 31.0805 35.813 30.6472 36.0437 30.1894C36.0544 30.168 36.0632 30.1464 36.0723 30.1248C36.0744 30.1199 36.0772 30.1157 36.0793 30.1107C36.0809 30.1068 36.0823 30.1027 36.0838 30.0989C36.0853 30.095 36.0868 30.0911 36.0882 30.0872C37.6011 26.3031 36.888 21.2305 34.1774 16.511C33.8954 16.02 33.2688 15.8506 32.7775 16.1324C32.2865 16.4144 32.1171 17.0412 32.399 17.5322C34.7946 21.7033 35.463 26.0993 34.1922 29.3042C32.4831 32.6525 28.6849 34.696 24.664 36.8583C18.7094 40.0607 11.9604 43.6904 11.3372 52.5064C11.0637 56.3555 11.0196 59.1418 12.7845 62.0487C12.7974 62.0721 13.7215 63.2349 14.1709 63.6081C12.9846 63.1898 11.3841 62.3958 9.68937 61.0654C6.8366 58.8261 2.05078 53.6266 2.05078 43.9625V32.336C2.05078 27.0178 3.68702 21.9 6.78246 17.5361C7.11004 17.0742 7.00135 16.4341 6.53938 16.1066C6.07768 15.7788 5.43743 15.8878 5.10985 16.3496C1.76695 21.0622 0 26.5901 0 32.336V43.9625C0 50.1683 1.8729 55.6417 5.41623 59.7911C8.36101 63.2395 11.9313 65.1485 14.2908 65.7851C14.9064 65.9512 15.4414 66.0342 15.8943 66.0342C16.2863 66.0342 16.6166 65.9718 16.8847 65.8477C19.9539 68.1905 23.5197 70.0004 26.5324 70.0002C26.6512 70.0002 26.769 69.9974 26.8862 69.9918C29.6163 70.1232 33.2275 68.581 36.8143 65.7531C37.6403 65.1019 38.4397 64.4007 39.1995 63.6665C39.2904 64.2127 39.5056 64.7221 39.9224 65.1214C40.3903 65.5697 41.0042 65.7933 41.7785 65.7933C42.3209 65.7933 42.942 65.6835 43.6464 65.4648C54.8937 61.9736 55.8088 52.4444 55.8088 41.2754V35.7893C56.5825 35.4318 56.843 34.5936 56.9284 34.3159L59.2496 26.8852C59.2633 26.8853 59.277 26.8864 59.2906 26.8864C59.5422 26.8864 59.7954 26.8493 60.0436 26.7748C60.7097 26.5744 61.2571 26.1273 61.5845 25.5163L62.761 23.3256C63.4298 22.0654 62.9536 20.4904 61.6994 19.8145C61.6988 19.8142 61.6981 19.8138 61.6974 19.8135L57.082 17.3384L65.5716 1.51022C65.84 1.0112 65.6524 0.389681 65.1533 0.121987V0.121987ZM54.9701 33.7082C54.962 33.7339 54.9545 33.7574 54.947 33.7793L52.4297 32.4299L53.3656 29.1889C53.5225 28.6449 53.2089 28.0762 52.6649 27.9192C52.121 27.7623 51.5524 28.0757 51.3952 28.6198L50.5811 31.439L47.2864 29.6727L49.1865 27.4369C49.5533 27.0055 49.5008 26.3582 49.0693 25.9916C48.6378 25.6249 47.9906 25.6774 47.6239 26.1087L45.4374 28.6815L42.7629 27.2477C42.7773 27.2286 42.7935 27.2082 42.8113 27.1863L47.7813 21.0601L57.3227 26.1768L54.9701 33.7082ZM60.9523 22.3598L59.7778 24.5469C59.6852 24.7197 59.5347 24.7865 59.4531 24.8111C59.3724 24.8355 59.2114 24.8625 59.0392 24.7703C59.0391 24.7703 59.039 24.7701 59.0388 24.77L48.5609 19.1511L48.0015 18.8512C47.7427 18.7131 47.6418 18.3759 47.7803 18.1167L48.9534 15.928C49.0514 15.7462 49.2461 15.6413 49.443 15.6413C49.5285 15.6413 49.6148 15.6611 49.6936 15.7031L60.7273 21.62C60.9921 21.7629 61.0919 22.0966 60.9523 22.3598V22.3598Z" fill="black"/>
</svg>
