<svg width="84" height="66" viewBox="0 0 84 66" fill="none" xmlns="http://www.w3.org/2000/svg">
<path d="M52.8636 53.9742C47.9181 52.6254 42.0732 50.9769 36.9779 50.9769H32.9315C22.7408 50.9769 10.0021 62.9661 9.40269 63.4157C8.80325 64.0151 8.80325 64.9144 9.40269 65.5138C9.70249 65.8136 10.0021 65.9634 10.4517 65.9634C10.7515 65.9634 11.201 65.8136 11.5008 65.364C11.6506 65.364 23.9396 53.8244 32.9315 53.8244H37.1277C41.7736 53.8244 47.3185 55.4729 52.1143 56.8217C52.8636 56.9716 53.613 56.5219 53.9126 55.7727C54.0624 55.0233 53.613 54.274 52.8636 53.9742Z" fill="black"/>
<path d="M82.5369 25.4999C81.6377 25.3501 80.8884 25.9495 80.8884 26.8488C80.8884 26.8488 80.4388 31.9442 78.1909 36.8897C75.3435 43.3338 70.6977 46.481 64.4033 46.481C64.1588 46.481 63.9373 46.5267 63.7431 46.6095C61.3121 46.562 59.2063 46.4358 57.3607 46.2556C69.6635 39.2814 73.2657 13.4576 73.3954 12.162C73.5452 11.4127 72.9458 10.6633 72.0465 10.5135C71.2973 10.5135 70.5479 11.1129 70.398 11.8623C70.398 12.1621 65.902 44.9825 50.9156 44.9825C50.6738 44.9825 50.4548 45.0271 50.2622 45.1079C49.3225 44.8882 48.4711 44.6619 47.6758 44.4408C60.8179 37.3162 61.4062 6.11156 61.4062 4.51896C61.4062 3.7697 60.8067 3.02029 59.9075 3.02029C59.0082 3.02029 58.4088 3.61972 58.4088 4.51896C58.4088 4.96858 57.6596 42.8844 41.9237 42.8844C41.7665 42.8844 41.619 42.9037 41.4818 42.9388C40.3911 42.7424 39.2978 42.5803 38.1997 42.4561C49.9231 32.7261 46.5537 2.84604 46.4197 1.37179C46.2699 0.472557 45.6705 -0.12688 44.7713 0.0229385C43.872 0.172757 43.2726 0.922175 43.4224 1.67143C43.4224 2.12105 47.4688 37.9387 32.4822 42.135H30.033C39.0244 29.5396 31.7153 6.40496 31.4333 5.41803C31.1335 4.66878 30.2345 4.21916 29.485 4.5188C28.7358 4.8186 28.2862 5.71767 28.5858 6.46709C28.5858 6.76623 36.494 31.689 25.9528 42.3669C25.0754 42.5239 24.1916 42.7573 23.3084 43.0517C29.3083 29.9245 21.1959 12.3688 20.7928 11.5625C20.493 10.8133 19.5939 10.5135 18.8445 10.8133C18.0953 11.1131 17.7955 12.0122 18.0953 12.7616C18.0953 12.9109 27.6081 33.4278 18.3541 45.2897C18.0384 45.4664 17.7251 45.6482 17.414 45.8339C19.905 34.9504 12.1748 18.4298 11.8009 17.5574C11.5011 16.8082 10.6021 16.5083 9.85264 16.8082C9.10338 17.108 8.80358 18.007 9.10338 18.7564C12.0771 25.0013 18.4413 42.6026 12.541 49.1725C11.7534 49.7786 11.0033 50.3859 10.3024 50.9774C11.6513 40.9364 3.10885 28.3478 2.65923 27.7483C2.20961 26.9991 1.31038 26.8491 0.561123 27.2987C-0.0383136 27.7483 -0.188132 28.6476 0.261323 29.247C0.411141 29.5468 12.7002 47.5305 5.05698 55.7732C4.90716 55.923 4.90716 55.923 4.90716 55.923C4.30773 56.5224 4.30773 57.4217 4.90716 58.0211C5.20696 58.3209 5.65642 58.4707 5.95622 58.4707C6.40584 58.4707 6.70547 58.3209 7.00527 58.1709C7.15509 58.0211 7.15509 58.0211 7.15509 58.0211C7.72109 57.4551 10.5916 54.5517 14.3628 51.6437C14.4083 51.6217 14.4534 51.5994 14.4985 51.577C14.5357 51.5379 14.5696 51.4966 14.606 51.4571C18.785 48.2677 24.0123 45.1328 28.436 45.1328H32.4824C37.2781 45.1328 41.9239 45.8821 46.5697 47.2309C50.6161 48.4298 55.7114 49.6288 65.9023 49.6288C66.2818 49.6288 66.6069 49.521 66.8571 49.33C82.3912 47.4027 83.8863 27.2917 83.8863 27.149C84.0356 26.2492 83.436 25.4999 82.5369 25.4999Z" fill="black"/>
</svg>
