<svg width="56" height="57" viewBox="0 0 56 57" fill="none" xmlns="http://www.w3.org/2000/svg">
<path d="M1.79885 26.4231C1.79885 33.2686 5.97425 35.0439 7.95658 35.5021C8.50729 37.4283 9.26434 39.2893 10.2146 41.053C9.22554 42.2801 7.71038 42.9616 6.13608 42.8876C5.61647 42.8876 5.19525 43.3088 5.19525 43.8284C5.19525 44.348 5.61647 44.7693 6.13608 44.7693C11.687 44.7693 11.781 51.0879 11.781 51.3551V51.3692C11.7849 51.8888 12.2093 52.3068 12.7289 52.3029C13.2485 52.299 13.6666 51.8747 13.6627 51.3551C13.7018 49.8376 14.1297 48.3555 14.9055 47.0508C17.4554 49.2509 20.7194 50.4466 24.0871 50.4142C29.0001 50.4142 33.0861 48.1704 36.2473 43.7541C37.1457 43.8928 38.0634 43.8347 38.9371 43.5838C40.3668 46.0627 43.3243 47.2188 46.0561 46.3665C48.7878 45.5142 50.5632 42.8814 50.3296 40.0294C52.3132 40.2707 54.1941 39.0877 54.8355 37.1953C55.477 35.3029 54.7033 33.22 52.9818 32.2054C53.5101 30.6946 52.8721 29.023 51.4715 28.2484C50.0709 27.4738 48.3159 27.8218 47.3169 29.0723C46.318 30.3227 46.3661 32.1113 47.4309 33.3062C47.0669 33.7886 46.8126 34.3448 46.6858 34.9357C45.9149 34.5964 45.0819 34.4208 44.2396 34.4201C42.9037 34.4201 43.3082 34.7485 43.01 34.1831C44.6423 32.96 46.2624 30.6709 46.2624 26.4231C46.2624 24.008 45.8343 21.0481 43.4522 20.7094C46.8348 15.4682 48.1855 9.17149 47.2503 3.00399L46.874 1.28697C46.7779 0.854874 46.3936 0.548168 45.951 0.550304H2.07264C1.63176 0.55038 1.25006 0.856599 1.15439 1.28697L0.759239 3.07455C-0.159099 9.22309 1.1974 15.4955 4.5743 20.7151C2.21846 21.0848 1.79885 24.0296 1.79885 26.4231V26.4231ZM3.68051 26.4231C3.68051 23.4237 4.40777 22.7755 4.62981 22.6485C5.09176 22.386 5.94038 22.7604 6.34212 23.0361C6.37988 26.5039 6.73607 29.9609 7.40619 33.3636C5.7381 32.673 3.68051 30.9137 3.68051 26.4231V26.4231ZM12.7219 47.0959C12.1318 45.7397 11.1376 44.5987 9.87493 43.8284C11.1272 43.046 12.1183 41.9085 12.7219 40.5609C13.312 41.9171 14.3062 43.0582 15.5688 43.8284C14.3155 44.6097 13.3242 45.7475 12.7219 47.0959ZM24.0871 48.5326C21.2028 48.5602 18.4046 47.5501 16.2029 45.6866C17.1142 45.0588 18.2016 44.7375 19.3077 44.7693C19.8273 44.7693 20.2485 44.348 20.2485 43.8284C20.2485 43.3088 19.8273 42.8876 19.3077 42.8876C13.7568 42.8876 13.6627 36.569 13.6627 36.3018V36.2877C13.6588 35.7681 13.2344 35.35 12.7148 35.3539C12.1952 35.3578 11.7772 35.7822 11.781 36.3018C11.7544 37.23 11.5914 38.1493 11.2975 39.0302C8.82779 33.8603 8.25953 27.9378 8.19931 22.0953C10.4585 17.9914 13.258 14.2091 16.5228 10.8496C18.8097 12.2012 21.4315 12.8805 24.0871 12.8093C28.6633 12.8093 31.6325 12.8451 33.8407 13.4302C36.2062 16.1985 38.264 19.2155 39.9777 22.4283C39.9669 25.3028 39.7414 28.1725 39.3031 31.0134C36.0029 29.8678 32.3828 31.5016 31.0586 34.7343C29.7344 37.9669 31.1679 41.6709 34.3233 43.1698C31.5911 46.7139 28.159 48.5326 24.0871 48.5326ZM17.92 9.48818C19.7841 7.73024 21.8257 6.17046 24.0118 4.8339C26.868 6.60002 29.4838 8.72793 31.7944 11.1647C25.7815 10.5174 21.9825 11.7405 17.92 9.48818ZM32.4793 37.2426C32.4793 34.6446 34.5854 32.5385 37.1834 32.5385C39.7815 32.5385 41.8876 34.6446 41.8876 37.2426C41.8876 39.8407 39.7815 41.9468 37.1834 41.9468C34.5867 41.9437 32.4824 39.8394 32.4793 37.2426ZM49.8846 29.716C50.664 29.716 51.2959 30.3478 51.2959 31.1272C51.2959 31.9066 50.664 32.5385 49.8846 32.5385C49.1052 32.5385 48.4734 31.9066 48.4734 31.1272C48.4734 30.3478 49.1052 29.716 49.8846 29.716ZM48.4734 35.8314C48.4727 35.2676 48.6785 34.7231 49.052 34.3007C50.029 34.5736 51.0776 34.3639 51.8745 33.7362C52.636 34.1057 53.1382 34.858 53.1873 35.703C53.2365 36.548 52.8249 37.3536 52.1113 37.8089C51.3978 38.2642 50.4938 38.298 49.7482 37.8974C49.4409 37.2565 49.0249 36.6736 48.5185 36.1748C48.4946 36.0617 48.4795 35.9469 48.4734 35.8314V35.8314ZM48.4734 40.5355C48.4684 42.4121 47.2288 44.0615 45.4276 44.588C43.6264 45.1146 41.6936 44.3926 40.6786 42.8142C42.8757 41.4448 44.06 38.9098 43.7005 36.346C44.9065 36.1875 46.1223 36.5567 47.0364 37.3591C47.9506 38.1615 48.4743 39.3192 48.4734 40.5355V40.5355ZM44.3808 26.4231C44.3808 29.3246 43.5444 31.4142 41.9017 32.658C41.6408 32.3897 41.3575 32.1442 41.0549 31.9241C41.5597 28.9635 41.825 25.9669 41.8481 22.9637C42.2987 22.7096 43.0006 22.3992 43.4352 22.6485C43.6544 22.7746 44.3808 23.4209 44.3808 26.4231ZM45.1983 2.43196C46.4642 8.80827 45.0126 15.4236 41.1932 20.684C36.3489 12.0839 29.2353 5.49624 23.6073 2.43196H45.1983ZM2.82718 2.43196H15.6591C13.56 3.82237 11.6877 5.52805 10.1083 7.48892C9.7835 7.89473 9.84921 8.48697 10.255 8.81172C10.6608 9.13647 11.2531 9.07076 11.5778 8.66495C13.6808 6.06818 16.3299 3.96644 19.3368 2.50911C20.2926 2.88475 21.2281 3.30995 22.1396 3.78299C14.2423 8.86723 9.19847 16.4625 6.83135 20.684C3.00663 15.426 1.5548 8.8082 2.82718 2.43196Z" fill="black"/>
<path d="M13.1424 20.9992C14.1235 20.5061 15.2609 20.4254 16.3017 20.7753L19.9512 21.9918C20.4448 22.156 20.9781 21.8889 21.1423 21.3953C21.3065 20.9017 21.0394 20.3684 20.5458 20.2042L16.8963 18.9905C15.3824 18.482 13.7281 18.5995 12.3013 19.317C11.9979 19.4657 11.7975 19.7656 11.7763 20.1028C11.7551 20.44 11.9164 20.7627 12.1988 20.9482C12.4812 21.1337 12.8414 21.1535 13.1424 21.0001V20.9992Z" fill="black"/>
<path d="M27.7751 22.0398C27.9944 22.0398 27.7751 22.0915 31.7266 20.7753C32.7673 20.4245 33.9051 20.5051 34.8859 20.9992C35.187 21.1526 35.5472 21.1328 35.8296 20.9473C36.112 20.7618 36.2732 20.4391 36.252 20.1019C36.2308 19.7647 36.0304 19.4647 35.727 19.3161C34.2999 18.5987 32.6453 18.4811 31.1311 18.9896L27.4825 20.2061C27.0452 20.3514 26.7774 20.7921 26.8501 21.2472C26.9227 21.7023 27.3143 22.0378 27.7751 22.0398V22.0398Z" fill="black"/>
<path d="M20.1968 25.6507C20.0299 25.1596 19.4972 24.8962 19.0057 25.0617C18.9728 25.0721 15.7645 26.1183 13.2864 24.2592C12.9138 23.9814 12.3941 24.0174 12.0633 24.3439C11.733 24.6856 11.3063 24.9186 10.8402 25.0118C10.3206 25.0118 9.89941 25.4331 9.89941 25.9527C9.89941 26.4723 10.3206 26.8935 10.8402 26.8935C11.5428 26.8558 12.2178 26.6077 12.7774 26.1813C12.9195 26.266 13.0597 26.3412 13.2045 26.4137C13.0784 26.6051 12.9141 26.7685 12.7219 26.8935C12.2023 26.8935 11.7811 27.3147 11.7811 27.8343C11.7811 28.9906 13.5188 29.4337 15.0486 27.0638C16.5644 27.3735 18.1337 27.2974 19.6125 26.8427C20.1022 26.6739 20.3634 26.1411 20.1968 25.6507Z" fill="black"/>
<path d="M34.7372 24.2592C32.2582 26.1182 29.0499 25.073 29.0208 25.0626C28.5311 24.9006 28.0022 25.163 27.8351 25.651C27.668 26.1389 27.9249 26.6705 28.4111 26.8427C29.8898 27.2982 31.4593 27.3742 32.9751 27.0638C33.453 27.8061 34.2725 28.7752 35.3017 28.7752C35.8258 28.7778 36.2545 28.3583 36.2633 27.8343C36.2686 27.5866 36.1739 27.3472 36.0006 27.1702C35.8273 26.9932 35.5899 26.8934 35.3422 26.8935C35.1337 26.7738 34.9559 26.6073 34.8229 26.4071C34.964 26.3346 35.1051 26.2613 35.2462 26.1766C35.8053 26.6046 36.4803 26.8544 37.1834 26.8935C37.703 26.8935 38.1242 26.4723 38.1242 25.9527C38.1242 25.4331 37.703 25.0118 37.1834 25.0118C36.7199 24.9184 36.2957 24.6864 35.9669 24.3467C35.6359 24.0156 35.1118 23.9783 34.7372 24.2592V24.2592Z" fill="black"/>
<path d="M20.6672 33.3212C22.6913 34.6755 25.3323 34.6755 27.3565 33.3212C27.6361 33.1347 27.795 32.8131 27.7733 32.4776C27.7516 32.1422 27.5525 31.8438 27.2511 31.6949C26.9497 31.546 26.5918 31.5691 26.3121 31.7557C24.9198 32.6863 23.1039 32.6863 21.7115 31.7557C21.2792 31.4673 20.6949 31.584 20.4066 32.0163C20.1182 32.4486 20.2349 33.0328 20.6672 33.3212Z" fill="black"/>
<path d="M28.4337 37.8071C27.8 37.6668 27.1881 37.4421 26.6141 37.1391C24.168 36.0261 23.8697 36.0252 21.4189 37.1391C20.8449 37.4421 20.233 37.6668 19.5993 37.8071C19.2834 37.7823 18.9714 37.8898 18.7377 38.1038C18.5041 38.3179 18.3698 38.6193 18.3668 38.9361C18.3668 40.2636 21.0247 41.9468 24.0118 41.9468C26.9989 41.9468 29.6568 40.2627 29.6568 38.9361C29.6539 38.6209 29.521 38.321 29.2894 38.1072C29.0577 37.8934 28.7481 37.7848 28.4337 37.8071V37.8071ZM21.0764 39.3388C22.0181 38.866 23.0005 38.4794 24.0118 38.1835C25.0243 38.4801 26.0083 38.8667 26.9519 39.3388C25.1114 40.3069 22.9122 40.3069 21.0717 39.3388H21.0764Z" fill="black"/>
<path d="M24.9527 43.8284H23.071C22.5514 43.8284 22.1302 44.2497 22.1302 44.7693C22.1302 45.2889 22.5514 45.7101 23.071 45.7101H24.9527C25.4723 45.7101 25.8935 45.2889 25.8935 44.7693C25.8935 44.2497 25.4723 43.8284 24.9527 43.8284Z" fill="black"/>
<path d="M8.01767 11.8402C8.53728 11.8402 8.9585 11.419 8.9585 10.8994C8.9585 10.3798 8.53728 9.95859 8.01767 9.95859C7.49807 9.95859 7.07684 10.3798 7.07684 10.8994C7.07684 11.419 7.49807 11.8402 8.01767 11.8402Z" fill="black"/>
<path d="M56 50.4142C56 47.8162 53.8939 45.7101 51.2958 45.7101C48.6978 45.7101 46.5917 47.8162 46.5917 50.4142C46.5917 53.0122 48.6978 55.1184 51.2958 55.1184C53.8926 55.1153 55.9969 53.011 56 50.4142ZM48.4734 50.4142C48.4734 48.8554 49.737 47.5917 51.2958 47.5917C52.8547 47.5917 54.1183 48.8554 54.1183 50.4142C54.1183 51.973 52.8547 53.2367 51.2958 53.2367C49.737 53.2367 48.4734 51.973 48.4734 50.4142Z" fill="black"/>
<path d="M43.7692 50.4142C43.7692 48.8554 42.5056 47.5917 40.9468 47.5917C39.3879 47.5917 38.1243 48.8554 38.1243 50.4142C38.1243 51.973 39.3879 53.2367 40.9468 53.2367C42.5056 53.2367 43.7692 51.973 43.7692 50.4142ZM40.0059 50.4142C40.0059 49.8946 40.4271 49.4734 40.9468 49.4734C41.4664 49.4734 41.8876 49.8946 41.8876 50.4142C41.8876 50.9338 41.4664 51.355 40.9468 51.355C40.4271 51.355 40.0059 50.9338 40.0059 50.4142Z" fill="black"/>
<path d="M38.1243 34.4201C37.1173 34.3904 36.1428 34.7774 35.4305 35.4897C34.7182 36.202 34.3312 37.1765 34.3609 38.1835C34.3609 38.7031 34.7822 39.1243 35.3018 39.1243C35.8214 39.1243 36.2426 38.7031 36.2426 38.1835C36.2103 37.6742 36.399 37.1757 36.7604 36.8155C37.1217 36.4552 37.6207 36.268 38.1299 36.3018C38.6495 36.3002 39.0695 35.8778 39.0679 35.3582C39.0663 34.8385 38.6439 34.4186 38.1243 34.4201Z" fill="black"/>
<path d="M5.19522 47.5917C4.67562 47.5917 4.25439 48.013 4.25439 48.5326V50.4142C4.25439 50.9338 4.67562 51.3551 5.19522 51.3551C5.71483 51.3551 6.13605 50.9338 6.13605 50.4142V48.5326C6.13605 48.013 5.71483 47.5917 5.19522 47.5917Z" fill="black"/>
<path d="M4.25439 56.0592C4.25439 56.5788 4.67562 57 5.19522 57C5.71483 57 6.13605 56.5788 6.13605 56.0592V54.1776C6.13605 53.6579 5.71483 53.2367 5.19522 53.2367C4.67562 53.2367 4.25439 53.6579 4.25439 54.1776V56.0592Z" fill="black"/>
<path d="M7.07694 53.2367H8.9586C9.4782 53.2367 9.89942 52.8155 9.89942 52.2959C9.89942 51.7763 9.4782 51.355 8.9586 51.355H7.07694C6.55733 51.355 6.13611 51.7763 6.13611 52.2959C6.13611 52.8155 6.55733 53.2367 7.07694 53.2367Z" fill="black"/>
<path d="M3.31357 51.355H1.43192C0.912312 51.355 0.491089 51.7763 0.491089 52.2959C0.491089 52.8155 0.912312 53.2367 1.43192 53.2367H3.31357C3.83318 53.2367 4.2544 52.8155 4.2544 52.2959C4.2544 51.7763 3.83318 51.355 3.31357 51.355Z" fill="black"/>
</svg>
