<svg width="60" height="68" viewBox="0 0 60 68" fill="none" xmlns="http://www.w3.org/2000/svg">
<path d="M47.8124 25.8985V62.0235C47.8124 65.3189 50.4935 68 53.789 68C57.0844 68 59.7655 65.3189 59.7655 62.0235V25.8985C59.7655 25.6893 59.7234 25.449 59.6632 25.2686L55.6789 13.3155C55.5813 13.0224 55.402 12.7412 55.1976 12.5368C54.8338 12.173 54.4303 11.7383 53.9631 11.235C50.3151 7.30521 43.5341 0 29.9917 0C29.9535 0 29.9149 0 29.8766 0.000132812C21.5866 0.0253671 11.9052 2.77724 1.10128 8.17924C0.426327 8.51672 0 9.20654 0 9.96105V21.9142C0 22.6319 0.386085 23.2941 1.01057 23.6478C1.63518 24.0014 2.40164 23.9916 3.0171 23.6224C30.4888 7.13959 43.1887 12.0328 50.7765 14.9563C50.9489 15.0227 51.1181 15.0877 51.2866 15.1523L47.9145 25.2686C47.8541 25.4501 47.8124 25.6893 47.8124 25.8985V25.8985ZM19.9476 11.0756C14.963 12.7939 9.60591 15.2684 3.98423 18.4474V11.1998C13.7843 6.43369 22.4943 4.00708 29.8887 3.9845C37.3193 3.96591 42.3805 6.40713 45.9748 9.15661C38.9518 7.35169 30.7021 7.36856 19.9476 11.0756ZM53.789 20.2454L55.0094 23.9065H52.5687L53.789 20.2454ZM51.7968 27.8907H55.7811V56.0469H51.7968V27.8907ZM51.7968 60.0313H55.7811V62.0235C55.7811 63.1219 54.8874 64.0156 53.789 64.0156C52.6905 64.0156 51.7968 63.1219 51.7968 62.0235V60.0313Z" fill="black"/>
<path d="M43.4205 27.4407C42.7537 26.5656 41.5035 26.3966 40.6285 27.0635C36.2459 30.4028 32.7797 31.1564 28.28 31.6988C22.0695 32.0992 16.2424 30.0495 14.9281 28.8161C14.4775 27.933 13.4287 27.5043 12.4732 27.852C11.4393 28.2282 10.9063 29.3715 11.2826 30.4054C11.6519 31.4201 12.7379 32.27 14.0328 32.9548L11.8115 35.1761C11.0335 35.9541 11.0335 37.2154 11.8115 37.9934C12.5894 38.7713 13.8509 38.7714 14.6289 37.9934L18.0936 34.5287C19.1465 34.8351 19.999 35.0318 20.814 35.1847L19.3336 40.7097C19.0489 41.7725 19.6795 42.8648 20.7423 43.1496C21.8115 43.4359 22.8993 42.7971 23.1822 41.7409L24.8084 35.6715C25.6251 35.719 26.3141 35.7303 27.0018 35.7218L28.6146 41.7409C28.8979 42.7984 29.9867 43.4357 31.0545 43.1495C32.1172 42.8647 32.7478 41.7723 32.4631 40.7096L31.0387 35.3936C31.9907 35.2474 32.9655 35.0455 33.9523 34.7779L37.1678 37.9934C37.9457 38.7713 39.2072 38.7714 39.9852 37.9934C40.7632 37.2154 40.7632 35.9541 39.9852 35.1761L38.0722 33.263C39.7941 32.4533 41.4593 31.4396 43.0432 30.2328C43.9184 29.5658 44.0874 28.3158 43.4205 27.4407V27.4407Z" fill="black"/>
</svg>
