<svg width="60" height="48" viewBox="0 0 60 48" fill="none" xmlns="http://www.w3.org/2000/svg">
<path d="M3.28052 48H29.0614C31.646 47.9991 33.7491 45.9288 33.7491 43.3853C33.7491 43.3844 33.7491 43.3844 33.7491 43.3844V42.0906C36.3462 40.6932 48.7957 33.8645 59.6215 25.6419C60.0312 25.33 60.1072 24.7505 59.7914 24.3472C59.4746 23.9438 58.8877 23.8681 58.4761 24.18C46.5091 33.27 32.5103 40.6526 32.3698 40.7256C32.3304 40.7459 32.3062 40.7819 32.2705 40.8067C32.2169 40.8446 32.1647 40.8806 32.1203 40.9284C32.08 40.9739 32.0521 41.0235 32.0219 41.0735C31.9912 41.124 31.9601 41.1713 31.9386 41.2276C31.9161 41.2894 31.9088 41.3538 31.8992 41.4187C31.8937 41.4602 31.874 41.4971 31.874 41.5404V43.3844V43.3853C31.874 44.9108 30.6119 46.1532 29.0614 46.1541H6.23188C6.43743 45.7332 6.56195 45.2673 6.56195 44.7697C6.56195 44.2596 6.14261 43.8468 5.6244 43.8468C5.10572 43.8468 4.68684 44.2596 4.68684 44.7697C4.68684 45.5331 4.05601 46.1541 3.28052 46.1541C2.50502 46.1541 1.87419 45.5331 1.87419 44.7697C1.87419 44.238 2.18915 43.7508 2.67669 43.5201L26.5975 34.0907C26.7147 34.0434 26.8214 33.9744 26.9116 33.8856L30.3917 30.4571L34.3681 34.3701C34.5507 34.5503 34.7906 34.6405 35.0305 34.6405C35.2708 34.6405 35.5107 34.5503 35.6933 34.3701L44.303 25.8947C44.3066 25.8911 44.3108 25.8884 44.3135 25.8857C44.3144 25.8848 44.3144 25.8839 44.3153 25.883L57.5711 12.8335C57.7542 12.6537 57.8462 12.4162 57.8462 12.1801C57.8462 11.9439 57.7542 11.7078 57.5711 11.5266L53.5943 7.61047L59.725 1.57581C60.0917 1.21484 60.0917 0.631699 59.725 0.270728C59.3583 -0.0902427 58.7659 -0.0902427 58.3992 0.270728L52.2685 6.30584C51.9018 5.94487 51.3094 5.94487 50.9428 6.30584L37.682 19.3616C35.8531 21.1602 32.8807 21.1602 31.0537 19.3625C30.687 19.0016 30.0946 19.0016 29.7279 19.3625C29.5452 19.5423 29.4532 19.7785 29.4532 20.0151C29.4532 20.2512 29.5452 20.4874 29.7279 20.6676L33.7061 24.5824L29.7325 28.4968C29.7316 28.4977 29.7297 28.4977 29.7279 28.4995C29.7261 28.5013 29.7261 28.5031 29.7242 28.504L25.7209 32.4476L1.9424 41.8211C1.93416 41.8247 1.92958 41.831 1.9218 41.8347C1.91447 41.8387 1.90303 41.8378 1.8957 41.8414C0.74345 42.37 4.26943e-07 43.5201 4.26943e-07 44.7706C-0.000915151 46.5512 1.47088 48 3.28052 48V48ZM34.3667 22.5558C36.0472 22.5558 37.7282 21.9263 39.0077 20.6663L51.6047 8.26707C51.6056 8.26797 51.6066 8.26797 51.6075 8.26887L55.5829 12.1828L42.9823 24.586C42.0969 25.4558 40.9222 25.9357 39.6725 25.9357C38.4218 25.9357 37.2453 25.4549 36.359 24.5824L34.2957 22.5513C34.3182 22.5522 34.3433 22.5558 34.3667 22.5558V22.5558ZM35.0318 25.8875C36.272 27.1097 37.92 27.7825 39.6715 27.7825C39.694 27.7825 39.7164 27.7793 39.7393 27.7784L35.0305 32.4134L31.7175 29.152L35.0318 25.8875Z" fill="black"/>
</svg>
