<svg width="67" height="55" viewBox="0 0 67 55" fill="none" xmlns="http://www.w3.org/2000/svg">
<path d="M41.4617 52.8373C37.633 51.0321 33.5936 49.0637 29.992 46.9014C29.5332 46.6259 28.9382 46.7746 28.6629 47.2334C28.3874 47.692 28.5361 48.2871 28.9948 48.5626C32.6694 50.7687 36.7611 52.763 40.6355 54.5898C41.1224 54.8194 41.6981 54.6073 41.9247 54.1266C42.1528 53.6428 41.9457 53.0654 41.4617 52.8373V52.8373Z" fill="black"/>
<path d="M26.5681 44.688C19.4148 39.678 15.6459 34.164 14.7069 27.3352C14.2844 24.2625 11.3169 21.856 7.80434 21.7377C7.526 21.7283 7.75668 21.7344 0.968713 21.7327C0.433596 21.7327 0 22.1663 0 22.7014C0 23.2365 0.433596 23.6701 0.968713 23.6701C7.84774 23.6715 7.51825 23.6668 7.73898 23.6741C9.96573 23.749 12.4628 25.2376 12.7877 27.5991C13.3332 31.5666 14.7459 35.0832 17.1067 38.3504C19.1507 41.1792 21.8821 43.7713 25.4565 46.275C25.6257 46.3934 25.8196 46.4503 26.0114 46.4503C26.3167 46.4503 26.6171 46.3062 26.8057 46.0372C27.1127 45.5991 27.0063 44.995 26.5681 44.688V44.688Z" fill="black"/>
<path d="M65.9424 28.2784C65.6251 27.8476 65.0191 27.7551 64.588 28.072L58.9735 32.2018C56.0489 34.353 51.925 33.864 49.5844 31.0882C47.3059 28.3859 47.4258 24.4177 49.8631 21.8577L57.9501 13.3635C59.4281 11.811 60.2017 9.77645 60.1276 7.63417C60.0538 5.49177 59.142 3.51496 57.5604 2.06796C54.4948 -0.73704 49.7432 -0.681888 46.743 2.19312L43.5852 5.2195C43.2523 4.88704 42.8101 4.70402 42.3398 4.70402C41.8692 4.70402 41.4269 4.8873 41.0939 5.22002L39.6588 6.65513C38.9063 6.55568 38.1175 6.79178 37.5404 7.36862L36.0754 8.83357L36.0598 8.81794C35.6814 8.43975 35.0681 8.43975 34.6898 8.81794C34.3115 9.19638 34.3115 9.80964 34.6898 10.188L34.7054 10.2036L33.9745 10.9345L33.9588 10.9187C33.5803 10.5406 32.967 10.5406 32.5887 10.9187C32.2104 11.2972 32.2104 11.9105 32.5887 12.2888L32.6045 12.3045L27.293 17.616L25.3158 14.7445C22.1335 10.123 16.8837 7.36371 11.2726 7.36371H0.968711C0.433595 7.36371 0 7.7973 0 8.33242C0 8.86754 0.433595 9.30113 0.968711 9.30113H11.2726C16.2461 9.30113 20.8994 11.7468 23.7201 15.8433L25.8998 19.0089L24.1126 20.7961C23.1284 21.7805 23.1284 23.3821 24.1128 24.3665L24.3296 24.5834L21.5638 27.3494C21.1855 27.7277 21.1855 28.3411 21.5639 28.7193C21.9421 29.0975 22.5555 29.0976 22.9338 28.7191L25.6995 25.9533L25.9165 26.1703C26.9006 27.1541 28.5022 27.1547 29.4868 26.1703L30.2828 25.3742L45.251 47.1128C45.5545 47.5533 46.1573 47.6647 46.5982 47.3613C47.0389 47.0577 47.1501 46.4546 46.8469 46.014L31.6761 23.9814L33.5188 22.1386C33.8973 21.7602 33.8973 21.1469 33.519 20.7686C33.1406 20.3905 32.5273 20.3903 32.1491 20.7686L28.117 24.8004C27.8883 25.0294 27.5158 25.0294 27.2867 24.8004L25.4828 22.9965C25.2539 22.7678 25.2539 22.3951 25.4828 22.1663L33.9746 13.6744L36.6088 16.3085L34.9149 18.0024C34.5366 18.3808 34.5366 18.9941 34.9149 19.3724C35.2934 19.7506 35.9066 19.7506 36.285 19.3724L37.9788 17.6785L37.9944 17.6942C38.373 18.0725 38.9861 18.0724 39.3644 17.6942C39.7427 17.3157 39.7427 16.7025 39.3644 16.3242L39.3488 16.3085L40.0797 15.5776L40.0953 15.5932C40.4739 15.9715 41.087 15.9714 41.4654 15.5932C41.8437 15.2148 41.8437 14.6015 41.4654 14.2232L41.4497 14.2076L42.9147 12.7426C43.4916 12.1657 43.7276 11.3769 43.6282 10.6244C44.6842 9.4281 45.5793 9.07355 45.5793 7.94339C45.5793 7.10048 44.9849 6.63136 44.9554 6.58977L48.0836 3.59194C50.3491 1.42047 53.9376 1.37927 56.2528 3.49739C57.4472 4.59022 58.1356 6.08307 58.1914 7.70095C58.2472 9.3187 57.6631 10.8553 56.547 12.0276L48.46 20.5218C45.3402 23.7987 45.1868 28.8781 48.1034 32.3373C49.8434 34.4011 52.3537 35.4773 54.8863 35.4773C56.7135 35.4773 58.5524 34.9168 60.1214 33.7629L65.7361 29.6331C66.1669 29.3159 66.2593 28.7095 65.9424 28.2784V28.2784ZM42.3399 6.71416L43.5694 7.94352L42.6276 8.88536L41.3982 7.656L42.3399 6.71416ZM37.9788 14.9386L35.3447 12.3045L36.0756 11.5736L38.7097 14.2077L37.9788 14.9386ZM37.4456 10.2036L38.2607 9.38832C38.2664 9.39426 38.2715 9.40072 38.2773 9.40666L40.8766 12.006C40.8825 12.0118 40.8889 12.0168 40.8949 12.0224L40.0797 12.8376L37.4456 10.2036Z" fill="black"/>
</svg>
