<svg width="356" height="189" viewBox="0 0 356 189" fill="none" xmlns="http://www.w3.org/2000/svg">
<g filter="url(#filter0_d_520_41)">
<rect x="5" y="7" width="346" height="164" rx="2" fill="white"/>
<rect x="25" y="170.607" width="15" height="15" transform="rotate(-45 25 170.607)" fill="white"/>
</g>
<path fill-rule="evenodd" clip-rule="evenodd" d="M27.8488 11.0225C28.6387 12.2127 30.0097 13 31.5687 13C34.016 13 36 11.0599 36 8.66667C36 6.27343 34.016 4.33334 31.5687 4.33334C30.6932 4.33334 29.8771 4.5816 29.1898 5.01006C29.5393 3.99893 30.1869 2.92053 31.2579 1.83581C31.6828 1.40539 31.6705 0.719564 31.2304 0.303984C30.7902 -0.111599 30.0889 -0.099566 29.6639 0.330857C25.7097 4.33578 26.224 8.68783 27.8488 11.0225Z" fill="#7F7F7F"/>
<path fill-rule="evenodd" clip-rule="evenodd" d="M17.2137 11.0225C18.0036 12.2127 19.3746 13 20.9336 13C23.3809 13 25.3649 11.0599 25.3649 8.66667C25.3649 6.27343 23.3809 4.33334 20.9336 4.33334C20.0581 4.33334 19.242 4.5816 18.5547 5.01006C18.9042 3.99893 19.5518 2.92053 20.6228 1.83581C21.0477 1.40539 21.0354 0.719564 20.5953 0.303984C20.1551 -0.111599 19.4538 -0.099566 19.0288 0.330857C15.0746 4.33578 15.5889 8.68783 17.2137 11.0225Z" fill="#7F7F7F"/>
<defs>
<filter id="filter0_d_520_41" x="0" y="4" width="356" height="184.213" filterUnits="userSpaceOnUse" color-interpolation-filters="sRGB">
<feFlood flood-opacity="0" result="BackgroundImageFix"/>
<feColorMatrix in="SourceAlpha" type="matrix" values="0 0 0 0 0 0 0 0 0 0 0 0 0 0 0 0 0 0 127 0" result="hardAlpha"/>
<feOffset dy="2"/>
<feGaussianBlur stdDeviation="2.5"/>
<feColorMatrix type="matrix" values="0 0 0 0 0 0 0 0 0 0 0 0 0 0 0 0 0 0 0.05 0"/>
<feBlend mode="normal" in2="BackgroundImageFix" result="effect1_dropShadow_520_41"/>
<feBlend mode="normal" in="SourceGraphic" in2="effect1_dropShadow_520_41" result="shape"/>
</filter>
</defs>
</svg>
